{"asset":{"version":"2.0","generator":"Loja Virtual DS v0.6.0 advanced animation patcher","copyright":"Original educational asset","extras":{"platform":"Loja Virtual DS","rig":"DS_VOXEL_RIG_1"}},"scene":0,"scenes":[{"name":"AvatarScene","nodes":[0]}],"nodes":[{"name":"AvatarRoot","extras":{"assetId":"avatar-tech-v1","rig":"DS_VOXEL_RIG_1","lod":0},"children":[1,62,63,86]},{"name":"B_Hips","translation":[0.0,3.05,0.0],"extras":{"bone":true},"children":[2,3,7,44,52,83]},{"name":"M_Hips","scale":[1.7,0.55,0.88],"mesh":3},{"name":"B_Torso","translation":[0.0,0.35,0.0],"extras":{"bone":true},"children":[4,5,6,8,28,36,60,80]},{"name":"M_Torso","translation":[0.0,0.75,0.0],"scale":[1.78,1.55,0.9],"mesh":3},{"name":"M_ShirtPanel","translation":[0.0,0.78,0.47],"scale":[1.05,0.95,0.08],"mesh":4},{"name":"M_Core","translation":[0.0,0.9,0.53],"scale":[0.42,0.42,0.08],"mesh":9},{"name":"M_Belt","translation":[0.0,-0.38,0.0],"scale":[1.78,0.18,0.94],"mesh":10},{"name":"B_Neck","translation":[0.0,1.58,0.0],"extras":{"bone":true},"children":[9]},{"name":"B_Head","translation":[0.0,0.1,0.0],"extras":{"bone":true},"children":[10,11,12,13,14,15,16,17,18,19,20,21,22,23,24,25,26,27,64,78,79]},{"name":"M_Head","translation":[0.0,0.6,0.0],"scale":[1.34,1.18,1.22],"mesh":1},{"name":"M_EarL","translation":[-0.73,0.61,0.0],"scale":[0.16,0.35,0.32],"mesh":0},{"name":"M_EarR","translation":[0.73,0.61,0.0],"scale":[0.16,0.35,0.32],"mesh":0},{"name":"M_EyeLWhite","translation":[-0.29,0.72,0.625],"scale":[0.28,0.18,0.035],"mesh":7},{"name":"M_EyeRWhite","translation":[0.29,0.72,0.625],"scale":[0.28,0.18,0.035],"mesh":7},{"name":"M_EyeLIris","translation":[-0.29,0.72,0.65],"scale":[0.11,0.12,0.035],"mesh":8},{"name":"M_EyeRIris","translation":[0.29,0.72,0.65],"scale":[0.11,0.12,0.035],"mesh":8},{"name":"M_BrowL","translation":[-0.29,0.91,0.65],"scale":[0.33,0.07,0.04],"mesh":2},{"name":"M_BrowR","translation":[0.29,0.91,0.65],"scale":[0.33,0.07,0.04],"mesh":2},{"name":"M_Mouth","translation":[0.0,0.39,0.65],"scale":[0.33,0.055,0.035],"mesh":2},{"name":"M_HairTop","translation":[0.0,1.25,-0.02],"scale":[1.42,0.28,1.28],"mesh":2},{"name":"M_HairBack","translation":[0.0,0.75,-0.68],"scale":[1.42,0.9,0.22],"mesh":2},{"name":"M_HairFront","translation":[0.0,1.08,0.54],"scale":[1.28,0.32,0.25],"mesh":2},{"name":"M_HairDetail0","translation":[-0.5,1.38,0.25],"scale":[0.45,0.25,0.55],"mesh":2},{"name":"M_HairDetail1","translation":[0.0,1.43,0.18],"scale":[0.5,0.32,0.6],"mesh":2},{"name":"M_HairDetail2","translation":[0.48,1.36,0.18],"scale":[0.42,0.25,0.55],"mesh":2},{"name":"M_HairDetail3","translation":[-0.6,0.95,0.48],"scale":[0.18,0.5,0.25],"mesh":2},{"name":"M_HairCyanStripe","translation":[0.62,1.1,0.32],"scale":[0.08,0.45,0.24],"mesh":9},{"name":"B_ShoulderL","translation":[-1.08,1.35,0.0],"extras":{"bone":true},"children":[29,30,31,81]},{"name":"M_UpperArmL","translation":[0.0,-0.57,0.0],"scale":[0.58,1.14,0.62],"mesh":3},{"name":"M_ArmStripeL","translation":[-0.0,-0.55,0.335],"scale":[0.18,0.82,0.055],"mesh":9},{"name":"B_ElbowL","translation":[0.0,-1.12,0.0],"extras":{"bone":true},"children":[32,33]},{"name":"M_ForearmL","translation":[0.0,-0.47,0.0],"scale":[0.54,0.94,0.58],"mesh":4},{"name":"B_HandL","translation":[0.0,-0.96,0.0],"extras":{"bone":true},"children":[34,35,61]},{"name":"M_HandL","translation":[0.0,-0.16,0.0],"scale":[0.5,0.38,0.52],"mesh":1},{"name":"SLOT_HAND_L","translation":[0.0,-0.35,0.15],"extras":{"slot":"held-item-left"}},{"name":"B_ShoulderR","translation":[1.08,1.35,0.0],"extras":{"bone":true},"children":[37,38,39,82]},{"name":"M_UpperArmR","translation":[0.0,-0.57,0.0],"scale":[0.58,1.14,0.62],"mesh":3},{"name":"M_ArmStripeR","translation":[0.0,-0.55,0.335],"scale":[0.18,0.82,0.055],"mesh":9},{"name":"B_ElbowR","translation":[0.0,-1.12,0.0],"extras":{"bone":true},"children":[40,41]},{"name":"M_ForearmR","translation":[0.0,-0.47,0.0],"scale":[0.54,0.94,0.58],"mesh":4},{"name":"B_HandR","translation":[0.0,-0.96,0.0],"extras":{"bone":true},"children":[42,43]},{"name":"M_HandR","translation":[0.0,-0.16,0.0],"scale":[0.5,0.38,0.52],"mesh":1},{"name":"SLOT_HAND_R","translation":[0.0,-0.35,0.15],"extras":{"slot":"held-item-right"},"children":[74]},{"name":"B_HipL","translation":[-0.47,-0.25,0.0],"extras":{"bone":true},"children":[45,46,47]},{"name":"M_UpperLegL","translation":[0.0,-0.69,0.0],"scale":[0.72,1.38,0.75],"mesh":5},{"name":"M_LegStripeL","translation":[-0.0,-0.72,0.405],"scale":[0.18,0.92,0.05],"mesh":9},{"name":"B_KneeL","translation":[0.0,-1.38,0.0],"extras":{"bone":true},"children":[48,49]},{"name":"M_LowerLegL","translation":[0.0,-0.57,0.0],"scale":[0.66,1.15,0.7],"mesh":5},{"name":"B_FootL","translation":[0.0,-1.13,0.16],"extras":{"bone":true},"children":[50,51,84]},{"name":"M_BootL","translation":[0.0,-0.16,0.18],"scale":[0.72,0.42,1.05],"mesh":6},{"name":"M_BootGlowL","translation":[0.0,-0.38,0.22],"scale":[0.74,0.08,1.06],"mesh":9},{"name":"B_HipR","translation":[0.47,-0.25,0.0],"extras":{"bone":true},"children":[53,54,55]},{"name":"M_UpperLegR","translation":[0.0,-0.69,0.0],"scale":[0.72,1.38,0.75],"mesh":5},{"name":"M_LegStripeR","translation":[0.0,-0.72,0.405],"scale":[0.18,0.92,0.05],"mesh":9},{"name":"B_KneeR","translation":[0.0,-1.38,0.0],"extras":{"bone":true},"children":[56,57]},{"name":"M_LowerLegR","translation":[0.0,-0.57,0.0],"scale":[0.66,1.15,0.7],"mesh":5},{"name":"B_FootR","translation":[0.0,-1.13,0.16],"extras":{"bone":true},"children":[58,59,85]},{"name":"M_BootR","translation":[0.0,-0.16,0.18],"scale":[0.72,0.42,1.05],"mesh":6},{"name":"M_BootGlowR","translation":[0.0,-0.38,0.22],"scale":[0.74,0.08,1.06],"mesh":9},{"name":"SLOT_BACK","translation":[0.0,0.75,-0.57],"extras":{"slot":"back"},"children":[65]},{"name":"SLOT_SHIELD","translation":[-0.28,-0.25,0.0],"extras":{"slot":"shield"},"children":[70]},{"name":"SLOT_AURA","translation":[0.0,3.0,0.0],"extras":{"slot":"aura"}},{"name":"SLOT_COMPANION","translation":[1.75,4.2,0.0],"extras":{"slot":"companion"}},{"name":"SLOT_HEAD","translation":[0.0,1.45,0.0],"extras":{"slot":"head"}},{"name":"ITEM_Backpack_Nexus","translation":[0.0,0.0,-0.22],"extras":{"itemId":"backpack-nexus","slot":"back","defaultVisible":false},"children":[66,67,68,69]},{"name":"M_BackpackBody","scale":[1.12,1.32,0.48],"mesh":10},{"name":"M_BackpackPanel","translation":[0.0,0.15,-0.27],"scale":[0.7,0.72,0.055],"mesh":9},{"name":"M_BackpackSideL","translation":[-0.66,0.0,0.0],"scale":[0.22,0.9,0.35],"mesh":4},{"name":"M_BackpackSideR","translation":[0.66,0.0,0.0],"scale":[0.22,0.9,0.35],"mesh":4},{"name":"ITEM_Shield_Sentinel","translation":[-0.22,-0.1,0.0],"rotation":[0.0,0.0,0.04361938685178757,0.9990482330322266],"extras":{"itemId":"shield-sentinel","slot":"shield","defaultVisible":false},"children":[71,72,73]},{"name":"M_ShieldCore","scale":[0.18,1.55,1.25],"mesh":12},{"name":"M_ShieldFrame","translation":[-0.11,0.0,0.0],"scale":[0.1,1.72,1.42],"mesh":11},{"name":"M_ShieldCenter","translation":[-0.18,0.0,0.0],"rotation":[0.3826834261417389,0.0,0.0,0.9238795042037964],"scale":[0.08,0.48,0.48],"mesh":9},{"name":"ITEM_Scanner_Prisma","translation":[0.0,-0.2,0.12],"extras":{"itemId":"scanner-prisma","slot":"held-item-right","defaultVisible":false},"children":[75,76,77]},{"name":"M_ScannerBody","scale":[0.42,0.72,0.32],"mesh":10},{"name":"M_ScannerScreen","translation":[0.0,0.08,0.18],"scale":[0.3,0.36,0.05],"mesh":13},{"name":"M_ScannerGrip","translation":[0.0,-0.45,-0.02],"scale":[0.2,0.42,0.2],"mesh":3},{"name":"SLOT_HAIR","translation":[0,0.6,0],"extras":{"slot":"hair"}},{"name":"SLOT_FACE","translation":[0,0.68,0.72],"extras":{"slot":"face"}},{"name":"SLOT_TORSO","translation":[0,0.75,0.02],"extras":{"slot":"torso"}},{"name":"SLOT_SHOULDER_L","translation":[0,0,0],"extras":{"slot":"shoulder-left"}},{"name":"SLOT_SHOULDER_R","translation":[0,0,0],"extras":{"slot":"shoulder-right"}},{"name":"SLOT_WAIST","translation":[0,-0.15,0],"extras":{"slot":"waist"}},{"name":"SLOT_FOOT_L","translation":[0,-0.15,0.18],"extras":{"slot":"foot-left"}},{"name":"SLOT_FOOT_R","translation":[0,-0.15,0.18],"extras":{"slot":"foot-right"}},{"name":"SLOT_VEHICLE","translation":[0,0.25,0],"extras":{"slot":"vehicle"}}],"meshes":[{"name":"Cube_Skin","primitives":[{"attributes":{"POSITION":0,"NORMAL":1,"TEXCOORD_0":2},"indices":3,"material":0}]},{"name":"Cube_SkinHighlight","primitives":[{"attributes":{"POSITION":0,"NORMAL":1,"TEXCOORD_0":2},"indices":3,"material":1}]},{"name":"Cube_Hair","primitives":[{"attributes":{"POSITION":0,"NORMAL":1,"TEXCOORD_0":2},"indices":3,"material":2}]},{"name":"Cube_TechFabric","primitives":[{"attributes":{"POSITION":0,"NORMAL":1,"TEXCOORD_0":2},"indices":3,"material":3}]},{"name":"Cube_TechFabricBlue","primitives":[{"attributes":{"POSITION":0,"NORMAL":1,"TEXCOORD_0":2},"indices":3,"material":4}]},{"name":"Cube_Pants","primitives":[{"attributes":{"POSITION":0,"NORMAL":1,"TEXCOORD_0":2},"indices":3,"material":5}]},{"name":"Cube_BootRubber","primitives":[{"attributes":{"POSITION":0,"NORMAL":1,"TEXCOORD_0":2},"indices":3,"material":6}]},{"name":"Cube_EyeWhite","primitives":[{"attributes":{"POSITION":0,"NORMAL":1,"TEXCOORD_0":2},"indices":3,"material":7}]},{"name":"Cube_IrisCyan","primitives":[{"attributes":{"POSITION":0,"NORMAL":1,"TEXCOORD_0":2},"indices":3,"material":8}]},{"name":"Cube_NeonCyan","primitives":[{"attributes":{"POSITION":0,"NORMAL":1,"TEXCOORD_0":2},"indices":3,"material":9}]},{"name":"Cube_Metal","primitives":[{"attributes":{"POSITION":0,"NORMAL":1,"TEXCOORD_0":2},"indices":3,"material":10}]},{"name":"Cube_Gold","primitives":[{"attributes":{"POSITION":0,"NORMAL":1,"TEXCOORD_0":2},"indices":3,"material":11}]},{"name":"Cube_ShieldBlue","primitives":[{"attributes":{"POSITION":0,"NORMAL":1,"TEXCOORD_0":2},"indices":3,"material":12}]},{"name":"Cube_HoloGlass","primitives":[{"attributes":{"POSITION":0,"NORMAL":1,"TEXCOORD_0":2},"indices":3,"material":13}]}],"materials":[{"name":"Skin","pbrMetallicRoughness":{"baseColorFactor":[0.63,0.34,0.19,1.0],"metallicFactor":0.0,"roughnessFactor":0.82}},{"name":"SkinHighlight","pbrMetallicRoughness":{"baseColorFactor":[0.84,0.55,0.34,1.0],"metallicFactor":0.0,"roughnessFactor":0.8}},{"name":"Hair","pbrMetallicRoughness":{"baseColorFactor":[0.055,0.025,0.018,1.0],"metallicFactor":0.05,"roughnessFactor":0.65}},{"name":"TechFabric","pbrMetallicRoughness":{"baseColorFactor":[0.025,0.055,0.075,1.0],"metallicFactor":0.15,"roughnessFactor":0.48}},{"name":"TechFabricBlue","pbrMetallicRoughness":{"baseColorFactor":[0.02,0.12,0.18,1.0],"metallicFactor":0.2,"roughnessFactor":0.4}},{"name":"Pants","pbrMetallicRoughness":{"baseColorFactor":[0.025,0.035,0.05,1.0],"metallicFactor":0.1,"roughnessFactor":0.55}},{"name":"BootRubber","pbrMetallicRoughness":{"baseColorFactor":[0.018,0.025,0.035,1.0],"metallicFactor":0.05,"roughnessFactor":0.35}},{"name":"EyeWhite","pbrMetallicRoughness":{"baseColorFactor":[0.85,0.92,0.95,1.0],"metallicFactor":0,"roughnessFactor":0.75}},{"name":"IrisCyan","pbrMetallicRoughness":{"baseColorFactor":[0.0,0.55,0.8,1.0],"metallicFactor":0.2,"roughnessFactor":0.25},"emissiveFactor":[0,0.35,0.65]},{"name":"NeonCyan","pbrMetallicRoughness":{"baseColorFactor":[0.0,0.45,0.68,1.0],"metallicFactor":0.25,"roughnessFactor":0.22},"emissiveFactor":[0,0.65,1.0]},{"name":"Metal","pbrMetallicRoughness":{"baseColorFactor":[0.16,0.22,0.28,1.0],"metallicFactor":0.85,"roughnessFactor":0.22}},{"name":"Gold","pbrMetallicRoughness":{"baseColorFactor":[0.85,0.47,0.04,1.0],"metallicFactor":0.85,"roughnessFactor":0.18},"emissiveFactor":[0.18,0.06,0]},{"name":"ShieldBlue","pbrMetallicRoughness":{"baseColorFactor":[0.02,0.16,0.38,1.0],"metallicFactor":0.55,"roughnessFactor":0.3},"emissiveFactor":[0,0.08,0.22]},{"name":"HoloGlass","pbrMetallicRoughness":{"baseColorFactor":[0.02,0.55,0.75,0.45],"metallicFactor":0.1,"roughnessFactor":0.1},"emissiveFactor":[0,0.4,0.75],"alphaMode":"BLEND","doubleSided":true}],"accessors":[{"bufferView":0,"byteOffset":0,"componentType":5126,"count":24,"type":"VEC3","min":[-0.5,-0.5,-0.5],"max":[0.5,0.5,0.5]},{"bufferView":1,"byteOffset":0,"componentType":5126,"count":24,"type":"VEC3","min":[-1.0,-1.0,-1.0],"max":[1.0,1.0,1.0]},{"bufferView":2,"byteOffset":0,"componentType":5126,"count":24,"type":"VEC2","min":[0.0,0.0],"max":[1.0,1.0]},{"bufferView":3,"byteOffset":0,"componentType":5123,"count":36,"type":"SCALAR","min":[0.0],"max":[23.0]},{"bufferView":4,"byteOffset":0,"componentType":5126,"count":4,"type":"SCALAR","min":[0.0],"max":[3.0]},{"bufferView":5,"byteOffset":0,"componentType":5126,"count":4,"type":"VEC4","min":[-0.009999708272516727,0.0,-0.004999729339033365,0.9999038577079773],"max":[0.012499449774622917,7.499759522033855e-05,0.005999495275318623,1.0]},{"bufferView":6,"byteOffset":0,"componentType":5126,"count":4,"type":"SCALAR","min":[0.0],"max":[3.0]},{"bufferView":7,"byteOffset":0,"componentType":5126,"count":4,"type":"VEC4","min":[0.0,-0.019998665899038315,0.0,0.9996874928474426],"max":[0.0,0.024997396394610405,0.0,1.0]},{"bufferView":8,"byteOffset":0,"componentType":5126,"count":4,"type":"SCALAR","min":[0.0],"max":[3.0]},{"bufferView":9,"byteOffset":0,"componentType":5126,"count":4,"type":"VEC3","min":[0.0,3.049999952316284,0.0],"max":[0.0,3.075000047683716,0.0]},{"bufferView":10,"byteOffset":0,"componentType":5126,"count":5,"type":"SCALAR","min":[0.0],"max":[1.0]},{"bufferView":11,"byteOffset":0,"componentType":5126,"count":5,"type":"VEC4","min":[-0.2715469300746918,0.0,0.0,0.962425172328949],"max":[0.2715469300746918,0.0,0.0,1.0]},{"bufferView":12,"byteOffset":0,"componentType":5126,"count":5,"type":"SCALAR","min":[0.0],"max":[1.0]},{"bufferView":13,"byteOffset":0,"componentType":5126,"count":5,"type":"VEC4","min":[-0.2715469300746918,0.0,0.0,0.962425172328949],"max":[0.2715469300746918,0.0,0.0,1.0]},{"bufferView":14,"byteOffset":0,"componentType":5126,"count":5,"type":"SCALAR","min":[0.0],"max":[1.0]},{"bufferView":15,"byteOffset":0,"componentType":5126,"count":5,"type":"VEC4","min":[-0.2715469300746918,0.0,0.0,0.962425172328949],"max":[0.2715469300746918,0.0,0.0,1.0]},{"bufferView":16,"byteOffset":0,"componentType":5126,"count":5,"type":"SCALAR","min":[0.0],"max":[1.0]},{"bufferView":17,"byteOffset":0,"componentType":5126,"count":5,"type":"VEC4","min":[-0.2715469300746918,0.0,0.0,0.962425172328949],"max":[0.2715469300746918,0.0,0.0,1.0]},{"bufferView":18,"byteOffset":0,"componentType":5126,"count":5,"type":"SCALAR","min":[0.0],"max":[1.0]},{"bufferView":19,"byteOffset":0,"componentType":5126,"count":5,"type":"VEC3","min":[0.0,3.049999952316284,0.0],"max":[0.0,3.0999999046325684,0.0]},{"bufferView":20,"byteOffset":0,"componentType":5126,"count":5,"type":"SCALAR","min":[0.0],"max":[0.699999988079071]},{"bufferView":21,"byteOffset":0,"componentType":5126,"count":5,"type":"VEC4","min":[-0.4349655210971832,0.0,0.0,0.9004471302032471],"max":[0.4349655210971832,0.0,0.0,1.0]},{"bufferView":22,"byteOffset":0,"componentType":5126,"count":5,"type":"SCALAR","min":[0.0],"max":[0.699999988079071]},{"bufferView":23,"byteOffset":0,"componentType":5126,"count":5,"type":"VEC4","min":[-0.4349655210971832,0.0,0.0,0.9004471302032471],"max":[0.4349655210971832,0.0,0.0,1.0]},{"bufferView":24,"byteOffset":0,"componentType":5126,"count":5,"type":"SCALAR","min":[0.0],"max":[0.699999988079071]},{"bufferView":25,"byteOffset":0,"componentType":5126,"count":5,"type":"VEC4","min":[-0.4349655210971832,0.0,0.0,0.9004471302032471],"max":[0.4349655210971832,0.0,0.0,1.0]},{"bufferView":26,"byteOffset":0,"componentType":5126,"count":5,"type":"SCALAR","min":[0.0],"max":[0.699999988079071]},{"bufferView":27,"byteOffset":0,"componentType":5126,"count":5,"type":"VEC4","min":[-0.4349655210971832,0.0,0.0,0.9004471302032471],"max":[0.4349655210971832,0.0,0.0,1.0]},{"bufferView":28,"byteOffset":0,"componentType":5126,"count":5,"type":"SCALAR","min":[0.0],"max":[0.699999988079071]},{"bufferView":29,"byteOffset":0,"componentType":5126,"count":5,"type":"VEC4","min":[0.059964004904031754,0.0,0.0,0.998200535774231],"max":[0.059964004904031754,0.0,0.0,0.998200535774231]},{"bufferView":30,"byteOffset":0,"componentType":5126,"count":7,"type":"SCALAR","min":[0.0],"max":[1.5499999523162842]},{"bufferView":31,"byteOffset":0,"componentType":5126,"count":7,"type":"VEC4","min":[0.0,0.0,0.0,0.7807069420814514],"max":[0.0,0.0,0.624897301197052,1.0]},{"bufferView":32,"byteOffset":0,"componentType":5126,"count":7,"type":"SCALAR","min":[0.0],"max":[1.5499999523162842]},{"bufferView":33,"byteOffset":0,"componentType":5126,"count":7,"type":"VEC4","min":[-0.01830599643290043,-0.04650599882006645,-0.36581477522850037,0.9293447136878967],"max":[0.0049895914271473885,0.04972948133945465,0.0,1.0]},{"bufferView":34,"byteOffset":0,"componentType":5126,"count":7,"type":"SCALAR","min":[0.0],"max":[1.5499999523162842]},{"bufferView":35,"byteOffset":0,"componentType":5126,"count":7,"type":"VEC4","min":[0.0,0.0,0.0,0.8109630942344666],"max":[0.0,0.0,0.5850972533226013,1.0]},{"bufferView":36,"byteOffset":0,"componentType":5126,"count":7,"type":"SCALAR","min":[0.0],"max":[1.5499999523162842]},{"bufferView":37,"byteOffset":0,"componentType":5126,"count":7,"type":"VEC4","min":[-0.03385504335165024,-0.11999010294675827,-0.26942822337150574,0.9549160599708557],"max":[0.01244670432060957,0.12405187636613846,0.0,1.0]},{"bufferView":38,"byteOffset":0,"componentType":5126,"count":7,"type":"SCALAR","min":[0.0],"max":[1.5499999523162842]},{"bufferView":39,"byteOffset":0,"componentType":5126,"count":7,"type":"VEC4","min":[0.0,-0.059964004904031754,0.0,0.9971888065338135],"max":[0.0,0.07492970675230026,0.0,1.0]},{"bufferView":40,"byteOffset":0,"componentType":5126,"count":7,"type":"SCALAR","min":[0.0],"max":[1.5]},{"bufferView":41,"byteOffset":0,"componentType":5126,"count":7,"type":"VEC4","min":[0.0,0.0,-0.681638777256012,0.7316888570785522],"max":[0.0,0.0,0.0,1.0]},{"bufferView":42,"byteOffset":0,"componentType":5126,"count":7,"type":"SCALAR","min":[0.0],"max":[1.5]},{"bufferView":43,"byteOffset":0,"componentType":5126,"count":7,"type":"VEC4","min":[0.0,0.0,0.0,0.7316888570785522],"max":[0.0,0.0,0.681638777256012,1.0]},{"bufferView":44,"byteOffset":0,"componentType":5126,"count":7,"type":"SCALAR","min":[0.0],"max":[1.5]},{"bufferView":45,"byteOffset":0,"componentType":5126,"count":7,"type":"VEC3","min":[0.0,3.049999952316284,0.0],"max":[0.0,3.4000000953674316,0.0]},{"bufferView":46,"byteOffset":0,"componentType":5126,"count":5,"type":"SCALAR","min":[0.0],"max":[1.0]},{"bufferView":47,"byteOffset":0,"componentType":5126,"count":5,"type":"VEC3","min":[0.0,2.8499999046325684,0.0],"max":[0.0,4.050000190734863,0.0]},{"bufferView":48,"byteOffset":0,"componentType":5126,"count":5,"type":"SCALAR","min":[0.0],"max":[1.0]},{"bufferView":49,"byteOffset":0,"componentType":5126,"count":5,"type":"VEC4","min":[0.0,0.0,-0.4794255495071411,0.8775825500488281],"max":[0.0,0.0,0.0,1.0]},{"bufferView":50,"byteOffset":0,"componentType":5126,"count":5,"type":"SCALAR","min":[0.0],"max":[1.0]},{"bufferView":51,"byteOffset":0,"componentType":5126,"count":5,"type":"VEC4","min":[0.0,0.0,0.0,0.8775825500488281],"max":[0.0,0.0,0.4794255495071411,1.0]},{"bufferView":52,"byteOffset":0,"componentType":5126,"count":7,"type":"SCALAR","min":[0.0],"max":[1.2000000476837158]},{"bufferView":53,"byteOffset":0,"componentType":5126,"count":7,"type":"VEC4","min":[-0.33129042387008667,-0.021338630467653275,-0.33129042387008667,0.8833765983581543],"max":[0.0,0.011794143356382847,0.0,1.0]},{"bufferView":54,"byteOffset":0,"componentType":5126,"count":7,"type":"SCALAR","min":[0.0],"max":[1.2000000476837158]},{"bufferView":55,"byteOffset":0,"componentType":5126,"count":7,"type":"VEC4","min":[-0.33129042387008667,-0.011794143356382847,0.0,0.8833765983581543],"max":[0.0,0.021338630467653275,0.33129042387008667,1.0]},{"bufferView":56,"byteOffset":0,"componentType":5126,"count":7,"type":"SCALAR","min":[0.0],"max":[1.2000000476837158]},{"bufferView":57,"byteOffset":0,"componentType":5126,"count":7,"type":"VEC4","min":[0.0,0.0,-0.5646424889564514,0.8253356218338013],"max":[0.0,0.0,0.0,1.0]},{"bufferView":58,"byteOffset":0,"componentType":5126,"count":7,"type":"SCALAR","min":[0.0],"max":[1.2000000476837158]},{"bufferView":59,"byteOffset":0,"componentType":5126,"count":7,"type":"VEC4","min":[0.0,0.0,0.0,0.8253356218338013],"max":[0.0,0.0,0.5646424889564514,1.0]},{"bufferView":60,"byteOffset":0,"componentType":5126,"count":5,"type":"SCALAR","min":[0.0],"max":[1.600000023841858]},{"bufferView":61,"byteOffset":0,"componentType":5126,"count":5,"type":"VEC4","min":[-0.26739948987960815,-0.04727853089570999,0.0,0.9477256536483765],"max":[0.0,0.0,0.16971959173679352,1.0]},{"bufferView":62,"byteOffset":0,"componentType":5126,"count":5,"type":"SCALAR","min":[0.0],"max":[1.600000023841858]},{"bufferView":63,"byteOffset":0,"componentType":5126,"count":5,"type":"VEC4","min":[0.0,0.0,0.0,0.6216099858283997],"max":[0.0,0.0,0.7833269238471985,1.0]},{"bufferView":64,"byteOffset":0,"componentType":5126,"count":5,"type":"SCALAR","min":[0.0],"max":[1.600000023841858]},{"bufferView":65,"byteOffset":0,"componentType":5126,"count":5,"type":"VEC4","min":[-0.00359418336302042,-0.08980665355920792,-0.039827488362789154,0.9951560497283936],"max":[0.0,0.06992099434137344,0.02493617683649063,1.0]},{"bufferView":66,"byteOffset":0,"componentType":5126,"count":4,"type":"SCALAR","min":[0.0],"max":[1.149999976158142]},{"bufferView":67,"byteOffset":0,"componentType":5126,"count":4,"type":"VEC4","min":[0.0,0.0,0.0,0.7807069420814514],"max":[0.0,0.0,0.624897301197052,1.0]},{"bufferView":68,"byteOffset":0,"componentType":5126,"count":4,"type":"SCALAR","min":[0.0],"max":[1.149999976158142]},{"bufferView":69,"byteOffset":0,"componentType":5126,"count":4,"type":"VEC4","min":[0.0,0.0,0.0,1.0],"max":[0.0,0.0,0.0,1.0]},{"bufferView":70,"byteOffset":0,"componentType":5126,"count":4,"type":"SCALAR","min":[0.0],"max":[1.149999976158142]},{"bufferView":71,"byteOffset":0,"componentType":5126,"count":4,"type":"VEC4","min":[0.0,0.0,0.0,0.9971888065338135],"max":[0.0,0.07492970675230026,0.0,1.0]},{"bufferView":72,"byteOffset":0,"componentType":5126,"count":5,"type":"SCALAR","min":[0.0],"max":[1.899999976158142]},{"bufferView":73,"byteOffset":0,"componentType":5126,"count":5,"type":"VEC3","min":[0.0,2.049999952316284,0.0],"max":[0.0,3.049999952316284,0.0]},{"bufferView":74,"byteOffset":0,"componentType":5126,"count":5,"type":"SCALAR","min":[0.0],"max":[1.899999976158142]},{"bufferView":75,"byteOffset":0,"componentType":5126,"count":5,"type":"VEC4","min":[-0.624897301197052,0.0,0.0,0.7807069420814514],"max":[0.0,0.0,0.0,1.0]},{"bufferView":76,"byteOffset":0,"componentType":5126,"count":5,"type":"SCALAR","min":[0.0],"max":[1.899999976158142]},{"bufferView":77,"byteOffset":0,"componentType":5126,"count":5,"type":"VEC4","min":[-0.624897301197052,0.0,0.0,0.7807069420814514],"max":[0.0,0.0,0.0,1.0]},{"bufferView":78,"byteOffset":0,"componentType":5126,"count":5,"type":"SCALAR","min":[0.0],"max":[1.899999976158142]},{"bufferView":79,"byteOffset":0,"componentType":5126,"count":5,"type":"VEC4","min":[0.0,0.0,0.0,0.7807069420814514],"max":[0.624897301197052,0.0,0.0,1.0]},{"bufferView":80,"byteOffset":0,"componentType":5126,"count":5,"type":"SCALAR","min":[0.0],"max":[1.899999976158142]},{"bufferView":81,"byteOffset":0,"componentType":5126,"count":5,"type":"VEC4","min":[0.0,0.0,0.0,0.7807069420814514],"max":[0.624897301197052,0.0,0.0,1.0]},{"bufferView":82,"byteOffset":0,"componentType":5126,"count":7,"type":"SCALAR","min":[0.0],"max":[2.700000047683716]},{"bufferView":83,"byteOffset":0,"componentType":5126,"count":7,"type":"VEC3","min":[-0.18000000715255737,3.049999952316284,0.0],"max":[0.18000000715255737,3.1500000953674316,0.0]},{"bufferView":84,"byteOffset":0,"componentType":5126,"count":7,"type":"SCALAR","min":[0.0],"max":[2.700000047683716]},{"bufferView":85,"byteOffset":0,"componentType":5126,"count":7,"type":"VEC4","min":[0.0,0.0,-0.0998334139585495,0.9950041770935059],"max":[0.0,0.0,0.0998334139585495,1.0]},{"bufferView":86,"byteOffset":0,"componentType":5126,"count":7,"type":"SCALAR","min":[0.0],"max":[2.700000047683716]},{"bufferView":87,"byteOffset":0,"componentType":5126,"count":7,"type":"VEC4","min":[-0.21142689883708954,-0.08670732378959656,-0.3193087875843048,0.9120429158210754],"max":[0.25733163952827454,0.07123982161283493,-0.3073108196258545,0.9476507306098938]},{"bufferView":88,"byteOffset":0,"componentType":5126,"count":7,"type":"SCALAR","min":[0.0],"max":[2.700000047683716]},{"bufferView":89,"byteOffset":0,"componentType":5126,"count":7,"type":"VEC4","min":[-0.25733163952827454,-0.08670732378959656,0.3073108196258545,0.9120429158210754],"max":[0.21142689883708954,0.07123982161283493,0.3193087875843048,0.9476507306098938]},{"bufferView":90,"byteOffset":0,"componentType":5126,"count":7,"type":"SCALAR","min":[0.0],"max":[2.700000047683716]},{"bufferView":91,"byteOffset":0,"componentType":5126,"count":7,"type":"VEC4","min":[0.0,-0.0998334139585495,0.0,0.9950041770935059],"max":[0.0,0.0998334139585495,0.0,1.0]},{"bufferView":92,"byteOffset":0,"componentType":5126,"count":7,"type":"SCALAR","min":[0.0],"max":[2.0999999046325684]},{"bufferView":93,"byteOffset":0,"componentType":5126,"count":7,"type":"VEC4","min":[0.059964004904031754,0.0,0.0,0.998200535774231],"max":[0.059964004904031754,0.0,0.0,0.998200535774231]},{"bufferView":94,"byteOffset":0,"componentType":5126,"count":7,"type":"SCALAR","min":[0.0],"max":[2.0999999046325684]},{"bufferView":95,"byteOffset":0,"componentType":5126,"count":7,"type":"VEC4","min":[0.08987855166196823,0.0,0.0,0.9959527254104614],"max":[0.08987855166196823,0.0,0.0,0.9959527254104614]},{"bufferView":96,"byteOffset":0,"componentType":5126,"count":7,"type":"SCALAR","min":[0.0],"max":[2.0999999046325684]},{"bufferView":97,"byteOffset":0,"componentType":5126,"count":7,"type":"VEC4","min":[-0.282538503408432,-0.02822347916662693,-0.2236851304769516,0.9323842525482178],"max":[-0.282538503408432,-0.02822347916662693,-0.2236851304769516,0.9323842525482178]},{"bufferView":98,"byteOffset":0,"componentType":5126,"count":7,"type":"SCALAR","min":[0.0],"max":[2.0999999046325684]},{"bufferView":99,"byteOffset":0,"componentType":5126,"count":7,"type":"VEC4","min":[-0.282538503408432,0.02822347916662693,0.2236851304769516,0.9323842525482178],"max":[-0.282538503408432,0.02822347916662693,0.2236851304769516,0.9323842525482178]},{"bufferView":100,"byteOffset":0,"componentType":5126,"count":7,"type":"SCALAR","min":[0.0],"max":[2.0999999046325684]},{"bufferView":101,"byteOffset":0,"componentType":5126,"count":7,"type":"VEC4","min":[0.0,0.0,-0.5438348054885864,0.8391923308372498],"max":[0.0,0.0,-0.45288628339767456,0.8915683031082153]},{"bufferView":102,"byteOffset":0,"componentType":5126,"count":7,"type":"SCALAR","min":[0.0],"max":[2.0999999046325684]},{"bufferView":103,"byteOffset":0,"componentType":5126,"count":7,"type":"VEC4","min":[0.0,0.0,0.45288628339767456,0.8391923308372498],"max":[0.0,0.0,0.5438348054885864,0.8915683031082153]},{"bufferView":104,"byteOffset":0,"componentType":5126,"count":5,"type":"SCALAR","min":[0.0],"max":[3.200000047683716]},{"bufferView":105,"byteOffset":0,"componentType":5126,"count":5,"type":"VEC4","min":[0.03998933359980583,0.0,0.0,0.9992001056671143],"max":[0.03998933359980583,0.0,0.0,0.9992001056671143]},{"bufferView":106,"byteOffset":0,"componentType":5126,"count":5,"type":"SCALAR","min":[0.0],"max":[3.200000047683716]},{"bufferView":107,"byteOffset":0,"componentType":5126,"count":5,"type":"VEC4","min":[0.09975355863571167,-0.039789553731679916,-0.003992272075265646,0.9942082762718201],"max":[0.09975355863571167,0.039789553731679916,0.003992272075265646,0.9942082762718201]},{"bufferView":108,"byteOffset":0,"componentType":5126,"count":5,"type":"SCALAR","min":[0.0],"max":[3.200000047683716]},{"bufferView":109,"byteOffset":0,"componentType":5126,"count":5,"type":"VEC4","min":[-0.22987835109233856,-0.013042768463492393,-0.20642487704753876,0.9509861469268799],"max":[-0.22987835109233856,-0.013042768463492393,-0.20642487704753876,0.9509861469268799]},{"bufferView":110,"byteOffset":0,"componentType":5126,"count":5,"type":"SCALAR","min":[0.0],"max":[3.200000047683716]},{"bufferView":111,"byteOffset":0,"componentType":5126,"count":5,"type":"VEC4","min":[-0.22987835109233856,0.013042768463492393,0.20642487704753876,0.9509861469268799],"max":[-0.22987835109233856,0.013042768463492393,0.20642487704753876,0.9509861469268799]},{"bufferView":112,"byteOffset":0,"componentType":5126,"count":6,"type":"SCALAR","min":[0.0],"max":[2.799999952316284]},{"bufferView":113,"byteOffset":0,"componentType":5126,"count":6,"type":"VEC4","min":[-0.0928957536816597,0.0,-0.5411179065704346,0.8349998593330383],"max":[0.0,0.05429288372397423,0.0,1.0]},{"bufferView":114,"byteOffset":0,"componentType":5126,"count":6,"type":"SCALAR","min":[0.0],"max":[2.799999952316284]},{"bufferView":115,"byteOffset":0,"componentType":5126,"count":6,"type":"VEC4","min":[0.0,0.0,-0.19866932928562164,0.9800665974617004],"max":[0.0,0.0,0.0,1.0]},{"bufferView":116,"byteOffset":0,"componentType":5126,"count":6,"type":"SCALAR","min":[0.0],"max":[2.799999952316284]},{"bufferView":117,"byteOffset":0,"componentType":5126,"count":6,"type":"VEC4","min":[0.0,-0.1246747300028801,0.0,0.9921976923942566],"max":[0.0,0.0,0.0,1.0]},{"bufferView":118,"byteOffset":0,"componentType":5126,"count":6,"type":"SCALAR","min":[0.0],"max":[2.700000047683716]},{"bufferView":119,"byteOffset":0,"componentType":5126,"count":6,"type":"VEC4","min":[-0.3490947484970093,-0.07148044556379318,0.0,0.9107968211174011],"max":[0.0,0.0,0.22039982676506042,1.0]},{"bufferView":120,"byteOffset":0,"componentType":5126,"count":6,"type":"SCALAR","min":[0.0],"max":[2.700000047683716]},{"bufferView":121,"byteOffset":0,"componentType":5126,"count":6,"type":"VEC4","min":[0.0,0.0,0.0,0.8775825500488281],"max":[0.0,0.0,0.4794255495071411,1.0]},{"bufferView":122,"byteOffset":0,"componentType":5126,"count":6,"type":"SCALAR","min":[0.0],"max":[2.700000047683716]},{"bufferView":123,"byteOffset":0,"componentType":5126,"count":6,"type":"VEC4","min":[0.0,0.0,-0.0074759963899850845,0.9904122352600098],"max":[0.05949614569544792,0.12445038557052612,0.0,1.0]},{"bufferView":124,"byteOffset":0,"componentType":5126,"count":8,"type":"SCALAR","min":[0.0],"max":[3.799999952316284]},{"bufferView":125,"byteOffset":0,"componentType":5126,"count":8,"type":"VEC3","min":[0.0,2.9000000953674316,0.0],"max":[0.0,3.9000000953674316,0.0]},{"bufferView":126,"byteOffset":0,"componentType":5126,"count":8,"type":"SCALAR","min":[0.0],"max":[3.799999952316284]},{"bufferView":127,"byteOffset":0,"componentType":5126,"count":8,"type":"VEC4","min":[0.0,0.0,-0.6631354689598083,0.7484993934631348],"max":[0.0,0.0,0.0,1.0]},{"bufferView":128,"byteOffset":0,"componentType":5126,"count":8,"type":"SCALAR","min":[0.0],"max":[3.799999952316284]},{"bufferView":129,"byteOffset":0,"componentType":5126,"count":8,"type":"VEC4","min":[0.0,0.0,0.0,0.7484993934631348],"max":[0.0,0.0,0.6631354689598083,1.0]},{"bufferView":130,"byteOffset":0,"componentType":5126,"count":6,"type":"SCALAR","min":[0.0],"max":[3.0]},{"bufferView":131,"byteOffset":0,"componentType":5126,"count":6,"type":"VEC3","min":[0.0,3.049999952316284,0.0],"max":[0.0,3.2300000190734863,0.0]},{"bufferView":132,"byteOffset":0,"componentType":5126,"count":6,"type":"SCALAR","min":[0.0],"max":[3.0]},{"bufferView":133,"byteOffset":0,"componentType":5126,"count":6,"type":"VEC4","min":[0.0,0.0,-0.5226872563362122,0.8525245189666748],"max":[0.0,0.0,0.0,1.0]},{"bufferView":134,"byteOffset":0,"componentType":5126,"count":6,"type":"SCALAR","min":[0.0],"max":[3.0]},{"bufferView":135,"byteOffset":0,"componentType":5126,"count":6,"type":"VEC4","min":[0.0,0.0,0.0,0.8525245189666748],"max":[0.0,0.0,0.5226872563362122,1.0]},{"bufferView":136,"byteOffset":0,"componentType":5126,"count":6,"type":"SCALAR","min":[0.0],"max":[3.0]},{"bufferView":137,"byteOffset":0,"componentType":5126,"count":6,"type":"VEC4","min":[-0.0998334139585495,0.0,0.0,0.9950041770935059],"max":[0.0,0.0,0.0,1.0]}],"bufferViews":[{"buffer":0,"byteOffset":0,"byteLength":288,"target":34962},{"buffer":0,"byteOffset":288,"byteLength":288,"target":34962},{"buffer":0,"byteOffset":576,"byteLength":192,"target":34962},{"buffer":0,"byteOffset":768,"byteLength":72,"target":34963},{"buffer":0,"byteOffset":840,"byteLength":16},{"buffer":0,"byteOffset":856,"byteLength":64},{"buffer":0,"byteOffset":920,"byteLength":16},{"buffer":0,"byteOffset":936,"byteLength":64},{"buffer":0,"byteOffset":1000,"byteLength":16},{"buffer":0,"byteOffset":1016,"byteLength":48},{"buffer":0,"byteOffset":1064,"byteLength":20},{"buffer":0,"byteOffset":1084,"byteLength":80},{"buffer":0,"byteOffset":1164,"byteLength":20},{"buffer":0,"byteOffset":1184,"byteLength":80},{"buffer":0,"byteOffset":1264,"byteLength":20},{"buffer":0,"byteOffset":1284,"byteLength":80},{"buffer":0,"byteOffset":1364,"byteLength":20},{"buffer":0,"byteOffset":1384,"byteLength":80},{"buffer":0,"byteOffset":1464,"byteLength":20},{"buffer":0,"byteOffset":1484,"byteLength":60},{"buffer":0,"byteOffset":1544,"byteLength":20},{"buffer":0,"byteOffset":1564,"byteLength":80},{"buffer":0,"byteOffset":1644,"byteLength":20},{"buffer":0,"byteOffset":1664,"byteLength":80},{"buffer":0,"byteOffset":1744,"byteLength":20},{"buffer":0,"byteOffset":1764,"byteLength":80},{"buffer":0,"byteOffset":1844,"byteLength":20},{"buffer":0,"byteOffset":1864,"byteLength":80},{"buffer":0,"byteOffset":1944,"byteLength":20},{"buffer":0,"byteOffset":1964,"byteLength":80},{"buffer":0,"byteOffset":2044,"byteLength":28},{"buffer":0,"byteOffset":2072,"byteLength":112},{"buffer":0,"byteOffset":2184,"byteLength":28},{"buffer":0,"byteOffset":2212,"byteLength":112},{"buffer":0,"byteOffset":2324,"byteLength":28},{"buffer":0,"byteOffset":2352,"byteLength":112},{"buffer":0,"byteOffset":2464,"byteLength":28},{"buffer":0,"byteOffset":2492,"byteLength":112},{"buffer":0,"byteOffset":2604,"byteLength":28},{"buffer":0,"byteOffset":2632,"byteLength":112},{"buffer":0,"byteOffset":2744,"byteLength":28},{"buffer":0,"byteOffset":2772,"byteLength":112},{"buffer":0,"byteOffset":2884,"byteLength":28},{"buffer":0,"byteOffset":2912,"byteLength":112},{"buffer":0,"byteOffset":3024,"byteLength":28},{"buffer":0,"byteOffset":3052,"byteLength":84},{"buffer":0,"byteOffset":3136,"byteLength":20},{"buffer":0,"byteOffset":3156,"byteLength":60},{"buffer":0,"byteOffset":3216,"byteLength":20},{"buffer":0,"byteOffset":3236,"byteLength":80},{"buffer":0,"byteOffset":3316,"byteLength":20},{"buffer":0,"byteOffset":3336,"byteLength":80},{"buffer":0,"byteOffset":3416,"byteLength":28},{"buffer":0,"byteOffset":3444,"byteLength":112},{"buffer":0,"byteOffset":3556,"byteLength":28},{"buffer":0,"byteOffset":3584,"byteLength":112},{"buffer":0,"byteOffset":3696,"byteLength":28},{"buffer":0,"byteOffset":3724,"byteLength":112},{"buffer":0,"byteOffset":3836,"byteLength":28},{"buffer":0,"byteOffset":3864,"byteLength":112},{"buffer":0,"byteOffset":3976,"byteLength":20},{"buffer":0,"byteOffset":3996,"byteLength":80},{"buffer":0,"byteOffset":4076,"byteLength":20},{"buffer":0,"byteOffset":4096,"byteLength":80},{"buffer":0,"byteOffset":4176,"byteLength":20},{"buffer":0,"byteOffset":4196,"byteLength":80},{"buffer":0,"byteOffset":4276,"byteLength":16},{"buffer":0,"byteOffset":4292,"byteLength":64},{"buffer":0,"byteOffset":4356,"byteLength":16},{"buffer":0,"byteOffset":4372,"byteLength":64},{"buffer":0,"byteOffset":4436,"byteLength":16},{"buffer":0,"byteOffset":4452,"byteLength":64},{"buffer":0,"byteOffset":4516,"byteLength":20},{"buffer":0,"byteOffset":4536,"byteLength":60},{"buffer":0,"byteOffset":4596,"byteLength":20},{"buffer":0,"byteOffset":4616,"byteLength":80},{"buffer":0,"byteOffset":4696,"byteLength":20},{"buffer":0,"byteOffset":4716,"byteLength":80},{"buffer":0,"byteOffset":4796,"byteLength":20},{"buffer":0,"byteOffset":4816,"byteLength":80},{"buffer":0,"byteOffset":4896,"byteLength":20},{"buffer":0,"byteOffset":4916,"byteLength":80},{"buffer":0,"byteOffset":4996,"byteLength":28},{"buffer":0,"byteOffset":5024,"byteLength":84},{"buffer":0,"byteOffset":5108,"byteLength":28},{"buffer":0,"byteOffset":5136,"byteLength":112},{"buffer":0,"byteOffset":5248,"byteLength":28},{"buffer":0,"byteOffset":5276,"byteLength":112},{"buffer":0,"byteOffset":5388,"byteLength":28},{"buffer":0,"byteOffset":5416,"byteLength":112},{"buffer":0,"byteOffset":5528,"byteLength":28},{"buffer":0,"byteOffset":5556,"byteLength":112},{"buffer":0,"byteOffset":5668,"byteLength":28},{"buffer":0,"byteOffset":5696,"byteLength":112},{"buffer":0,"byteOffset":5808,"byteLength":28},{"buffer":0,"byteOffset":5836,"byteLength":112},{"buffer":0,"byteOffset":5948,"byteLength":28},{"buffer":0,"byteOffset":5976,"byteLength":112},{"buffer":0,"byteOffset":6088,"byteLength":28},{"buffer":0,"byteOffset":6116,"byteLength":112},{"buffer":0,"byteOffset":6228,"byteLength":28},{"buffer":0,"byteOffset":6256,"byteLength":112},{"buffer":0,"byteOffset":6368,"byteLength":28},{"buffer":0,"byteOffset":6396,"byteLength":112},{"buffer":0,"byteOffset":6508,"byteLength":20},{"buffer":0,"byteOffset":6528,"byteLength":80},{"buffer":0,"byteOffset":6608,"byteLength":20},{"buffer":0,"byteOffset":6628,"byteLength":80},{"buffer":0,"byteOffset":6708,"byteLength":20},{"buffer":0,"byteOffset":6728,"byteLength":80},{"buffer":0,"byteOffset":6808,"byteLength":20},{"buffer":0,"byteOffset":6828,"byteLength":80},{"buffer":0,"byteOffset":6908,"byteLength":24},{"buffer":0,"byteOffset":6932,"byteLength":96},{"buffer":0,"byteOffset":7028,"byteLength":24},{"buffer":0,"byteOffset":7052,"byteLength":96},{"buffer":0,"byteOffset":7148,"byteLength":24},{"buffer":0,"byteOffset":7172,"byteLength":96},{"buffer":0,"byteOffset":7268,"byteLength":24},{"buffer":0,"byteOffset":7292,"byteLength":96},{"buffer":0,"byteOffset":7388,"byteLength":24},{"buffer":0,"byteOffset":7412,"byteLength":96},{"buffer":0,"byteOffset":7508,"byteLength":24},{"buffer":0,"byteOffset":7532,"byteLength":96},{"buffer":0,"byteOffset":7628,"byteLength":32},{"buffer":0,"byteOffset":7660,"byteLength":96},{"buffer":0,"byteOffset":7756,"byteLength":32},{"buffer":0,"byteOffset":7788,"byteLength":128},{"buffer":0,"byteOffset":7916,"byteLength":32},{"buffer":0,"byteOffset":7948,"byteLength":128},{"buffer":0,"byteOffset":8076,"byteLength":24},{"buffer":0,"byteOffset":8100,"byteLength":72},{"buffer":0,"byteOffset":8172,"byteLength":24},{"buffer":0,"byteOffset":8196,"byteLength":96},{"buffer":0,"byteOffset":8292,"byteLength":24},{"buffer":0,"byteOffset":8316,"byteLength":96},{"buffer":0,"byteOffset":8412,"byteLength":24},{"buffer":0,"byteOffset":8436,"byteLength":96}],"buffers":[{"byteLength":8532,"uri":"avatar-tech-v1-lod0.bin"}],"animations":[{"name":"Idle","samplers":[{"input":4,"output":5,"interpolation":"LINEAR"},{"input":6,"output":7,"interpolation":"LINEAR"},{"input":8,"output":9,"interpolation":"LINEAR"}],"channels":[{"sampler":0,"target":{"node":3,"path":"rotation"}},{"sampler":1,"target":{"node":9,"path":"rotation"}},{"sampler":2,"target":{"node":1,"path":"translation"}}],"extras":{"loop":true}},{"name":"Walk","samplers":[{"input":10,"output":11,"interpolation":"LINEAR"},{"input":12,"output":13,"interpolation":"LINEAR"},{"input":14,"output":15,"interpolation":"LINEAR"},{"input":16,"output":17,"interpolation":"LINEAR"},{"input":18,"output":19,"interpolation":"LINEAR"}],"channels":[{"sampler":0,"target":{"node":28,"path":"rotation"}},{"sampler":1,"target":{"node":44,"path":"rotation"}},{"sampler":2,"target":{"node":36,"path":"rotation"}},{"sampler":3,"target":{"node":52,"path":"rotation"}},{"sampler":4,"target":{"node":1,"path":"translation"}}],"extras":{"loop":true}},{"name":"Run","samplers":[{"input":20,"output":21,"interpolation":"LINEAR"},{"input":22,"output":23,"interpolation":"LINEAR"},{"input":24,"output":25,"interpolation":"LINEAR"},{"input":26,"output":27,"interpolation":"LINEAR"},{"input":28,"output":29,"interpolation":"LINEAR"}],"channels":[{"sampler":0,"target":{"node":28,"path":"rotation"}},{"sampler":1,"target":{"node":44,"path":"rotation"}},{"sampler":2,"target":{"node":36,"path":"rotation"}},{"sampler":3,"target":{"node":52,"path":"rotation"}},{"sampler":4,"target":{"node":3,"path":"rotation"}}],"extras":{"loop":true}},{"name":"Wave","samplers":[{"input":30,"output":31,"interpolation":"LINEAR"},{"input":32,"output":33,"interpolation":"LINEAR"}],"channels":[{"sampler":0,"target":{"node":36,"path":"rotation"}},{"sampler":1,"target":{"node":39,"path":"rotation"}}],"extras":{"loop":false}},{"name":"Goodbye","samplers":[{"input":34,"output":35,"interpolation":"LINEAR"},{"input":36,"output":37,"interpolation":"LINEAR"},{"input":38,"output":39,"interpolation":"LINEAR"}],"channels":[{"sampler":0,"target":{"node":36,"path":"rotation"}},{"sampler":1,"target":{"node":39,"path":"rotation"}},{"sampler":2,"target":{"node":9,"path":"rotation"}}],"extras":{"loop":false}},{"name":"Celebrate","samplers":[{"input":40,"output":41,"interpolation":"LINEAR"},{"input":42,"output":43,"interpolation":"LINEAR"},{"input":44,"output":45,"interpolation":"LINEAR"}],"channels":[{"sampler":0,"target":{"node":28,"path":"rotation"}},{"sampler":1,"target":{"node":36,"path":"rotation"}},{"sampler":2,"target":{"node":1,"path":"translation"}}],"extras":{"loop":false}},{"name":"Jump","samplers":[{"input":46,"output":47,"interpolation":"LINEAR"},{"input":48,"output":49,"interpolation":"LINEAR"},{"input":50,"output":51,"interpolation":"LINEAR"}],"channels":[{"sampler":0,"target":{"node":1,"path":"translation"}},{"sampler":1,"target":{"node":28,"path":"rotation"}},{"sampler":2,"target":{"node":36,"path":"rotation"}}],"extras":{"loop":false}},{"name":"Applause","samplers":[{"input":52,"output":53,"interpolation":"LINEAR"},{"input":54,"output":55,"interpolation":"LINEAR"},{"input":56,"output":57,"interpolation":"LINEAR"},{"input":58,"output":59,"interpolation":"LINEAR"}],"channels":[{"sampler":0,"target":{"node":28,"path":"rotation"}},{"sampler":1,"target":{"node":36,"path":"rotation"}},{"sampler":2,"target":{"node":31,"path":"rotation"}},{"sampler":3,"target":{"node":39,"path":"rotation"}}],"extras":{"loop":false}},{"name":"Think","samplers":[{"input":60,"output":61,"interpolation":"LINEAR"},{"input":62,"output":63,"interpolation":"LINEAR"},{"input":64,"output":65,"interpolation":"LINEAR"}],"channels":[{"sampler":0,"target":{"node":36,"path":"rotation"}},{"sampler":1,"target":{"node":39,"path":"rotation"}},{"sampler":2,"target":{"node":9,"path":"rotation"}}],"extras":{"loop":false}},{"name":"Point","samplers":[{"input":66,"output":67,"interpolation":"LINEAR"},{"input":68,"output":69,"interpolation":"LINEAR"},{"input":70,"output":71,"interpolation":"LINEAR"}],"channels":[{"sampler":0,"target":{"node":36,"path":"rotation"}},{"sampler":1,"target":{"node":39,"path":"rotation"}},{"sampler":2,"target":{"node":9,"path":"rotation"}}],"extras":{"loop":false}},{"name":"Sit","samplers":[{"input":72,"output":73,"interpolation":"LINEAR"},{"input":74,"output":75,"interpolation":"LINEAR"},{"input":76,"output":77,"interpolation":"LINEAR"},{"input":78,"output":79,"interpolation":"LINEAR"},{"input":80,"output":81,"interpolation":"LINEAR"}],"channels":[{"sampler":0,"target":{"node":1,"path":"translation"}},{"sampler":1,"target":{"node":44,"path":"rotation"}},{"sampler":2,"target":{"node":52,"path":"rotation"}},{"sampler":3,"target":{"node":47,"path":"rotation"}},{"sampler":4,"target":{"node":55,"path":"rotation"}}],"extras":{"loop":false}},{"name":"DanceLoop","samplers":[{"input":82,"output":83,"interpolation":"LINEAR"},{"input":84,"output":85,"interpolation":"LINEAR"},{"input":86,"output":87,"interpolation":"LINEAR"},{"input":88,"output":89,"interpolation":"LINEAR"},{"input":90,"output":91,"interpolation":"LINEAR"}],"channels":[{"sampler":0,"target":{"node":1,"path":"translation"}},{"sampler":1,"target":{"node":3,"path":"rotation"}},{"sampler":2,"target":{"node":28,"path":"rotation"}},{"sampler":3,"target":{"node":36,"path":"rotation"}},{"sampler":4,"target":{"node":9,"path":"rotation"}}],"extras":{"loop":true,"source":"Loja Virtual DS v0.6.0"}},{"name":"TypeComputer","samplers":[{"input":92,"output":93,"interpolation":"LINEAR"},{"input":94,"output":95,"interpolation":"LINEAR"},{"input":96,"output":97,"interpolation":"LINEAR"},{"input":98,"output":99,"interpolation":"LINEAR"},{"input":100,"output":101,"interpolation":"LINEAR"},{"input":102,"output":103,"interpolation":"LINEAR"}],"channels":[{"sampler":0,"target":{"node":3,"path":"rotation"}},{"sampler":1,"target":{"node":9,"path":"rotation"}},{"sampler":2,"target":{"node":28,"path":"rotation"}},{"sampler":3,"target":{"node":36,"path":"rotation"}},{"sampler":4,"target":{"node":31,"path":"rotation"}},{"sampler":5,"target":{"node":39,"path":"rotation"}}],"extras":{"loop":true,"source":"Loja Virtual DS v0.6.0"}},{"name":"StudyNotebook","samplers":[{"input":104,"output":105,"interpolation":"LINEAR"},{"input":106,"output":107,"interpolation":"LINEAR"},{"input":108,"output":109,"interpolation":"LINEAR"},{"input":110,"output":111,"interpolation":"LINEAR"}],"channels":[{"sampler":0,"target":{"node":3,"path":"rotation"}},{"sampler":1,"target":{"node":9,"path":"rotation"}},{"sampler":2,"target":{"node":28,"path":"rotation"}},{"sampler":3,"target":{"node":36,"path":"rotation"}}],"extras":{"loop":true,"source":"Loja Virtual DS v0.6.0"}},{"name":"PresentProject","samplers":[{"input":112,"output":113,"interpolation":"LINEAR"},{"input":114,"output":115,"interpolation":"LINEAR"},{"input":116,"output":117,"interpolation":"LINEAR"}],"channels":[{"sampler":0,"target":{"node":28,"path":"rotation"}},{"sampler":1,"target":{"node":31,"path":"rotation"}},{"sampler":2,"target":{"node":9,"path":"rotation"}}],"extras":{"loop":false,"source":"Loja Virtual DS v0.6.0"}},{"name":"UseScanner","samplers":[{"input":118,"output":119,"interpolation":"LINEAR"},{"input":120,"output":121,"interpolation":"LINEAR"},{"input":122,"output":123,"interpolation":"LINEAR"}],"channels":[{"sampler":0,"target":{"node":36,"path":"rotation"}},{"sampler":1,"target":{"node":39,"path":"rotation"}},{"sampler":2,"target":{"node":9,"path":"rotation"}}],"extras":{"loop":false,"source":"Loja Virtual DS v0.6.0"}},{"name":"RocketCelebrate","samplers":[{"input":124,"output":125,"interpolation":"LINEAR"},{"input":126,"output":127,"interpolation":"LINEAR"},{"input":128,"output":129,"interpolation":"LINEAR"}],"channels":[{"sampler":0,"target":{"node":1,"path":"translation"}},{"sampler":1,"target":{"node":28,"path":"rotation"}},{"sampler":2,"target":{"node":36,"path":"rotation"}}],"extras":{"loop":false,"source":"Loja Virtual DS v0.6.0"}},{"name":"AuraPowerUp","samplers":[{"input":130,"output":131,"interpolation":"LINEAR"},{"input":132,"output":133,"interpolation":"LINEAR"},{"input":134,"output":135,"interpolation":"LINEAR"},{"input":136,"output":137,"interpolation":"LINEAR"}],"channels":[{"sampler":0,"target":{"node":1,"path":"translation"}},{"sampler":1,"target":{"node":28,"path":"rotation"}},{"sampler":2,"target":{"node":36,"path":"rotation"}},{"sampler":3,"target":{"node":9,"path":"rotation"}}],"extras":{"loop":false,"source":"Loja Virtual DS v0.6.0"}}],"extensionsUsed":[],"extras":{"equipmentVersion":"0.5.0"}}