<svg xmlns="http://www.w3.org/2000/svg" viewBox="0 0 1280 720" role="img" aria-label="Crystal Cascade 3D — tabuleiro prismático"><defs><linearGradient id="bg" y2="1"><stop stop-color="#101c44"/><stop offset="1" stop-color="#050816"/></linearGradient></defs><rect width="1280" height="720" fill="url(#bg)"/><g transform="translate(355 72) skewX(-3)"><rect width="570" height="570" rx="36" fill="#101a35" stroke="#84dcff" stroke-opacity=".45" stroke-width="3"/><g id="r"><path d="M42 16 72 36 80 75 43 102 8 75 15 36Z" fill="#59f2ff"/><path d="M112 16 142 36 150 75 113 102 78 75 85 36Z" fill="#ffca55"/><path d="M182 16 212 36 220 75 183 102 148 75 155 36Z" fill="#55f0a3"/><path d="M252 16 282 36 290 75 253 102 218 75 225 36Z" fill="#b987ff"/><path d="M322 16 352 36 360 75 323 102 288 75 295 36Z" fill="#ff6eaa"/><path d="M392 16 422 36 430 75 393 102 358 75 365 36Z" fill="#62a9ff"/><path d="M462 16 492 36 500 75 463 102 428 75 435 36Z" fill="#59f2ff"/><path d="M532 16 562 36 570 75 533 102 498 75 505 36Z" fill="#ffca55"/></g><use href="#r" transform="translate(0 70)"/><use href="#r" transform="translate(0 140)"/><use href="#r" transform="translate(0 210)"/><use href="#r" transform="translate(0 280)"/><use href="#r" transform="translate(0 350)"/><use href="#r" transform="translate(0 420)"/></g><text x="70" y="105" fill="#fff" font-family="system-ui" font-size="54" font-weight="900">CRYSTAL CASCADE 3D</text><text x="72" y="155" fill="#a9d8ee" font-family="system-ui" font-size="26">tabuleiro 8×8 · peças especiais · gelo</text></svg>
