<svg xmlns="http://www.w3.org/2000/svg" width="960" height="540" viewBox="0 0 960 540" role="img" aria-label="Câmeras em Evolução — comparação de enquadramentos"><rect width="960" height="540" fill="#060b17"/><rect x="22" y="20" width="916" height="500" rx="20" fill="none" stroke="#ff7edb" stroke-opacity=".48" stroke-width="2"/><text x="48" y="64" fill="#f4f8ff" font-family="Arial" font-size="30" font-weight="900">O enquadramento muda o jogo</text><text x="50" y="92" fill="#62e8ff" font-family="monospace" font-size="15">CONTROLE · VISIBILIDADE · VELOCIDADE · LEVEL DESIGN</text><g transform="translate(48 126)"><g><rect width="270" height="320" rx="18" fill="#0a1428" stroke="#62e8ff"/><text x="18" y="34" fill="#62e8ff" font-family="monospace" font-size="15">PRIMEIRA PESSOA</text><path d="M22 265 135 110 248 265" fill="#142d50" stroke="#62e8ff" stroke-width="3"/><path d="M135 110v155M60 210h150" stroke="#ff7edb" stroke-width="2"/><text x="22" y="296" fill="#dce8ff" font-family="Arial" font-size="16">precisão e presença</text></g><g transform="translate(294)"><rect width="270" height="320" rx="18" fill="#0a1428" stroke="#ff7edb"/><text x="18" y="34" fill="#ff9ee3" font-family="monospace" font-size="15">TERCEIRA / CHASE</text><path d="M30 265 135 132 240 265" fill="#241b43" stroke="#ff7edb" stroke-width="3"/><circle cx="135" cy="185" r="18" fill="#f3f8ff"/><path d="M135 203v44m0-25-22 18m22-18 22 18" stroke="#62e8ff" stroke-width="4"/><text x="22" y="296" fill="#dce8ff" font-family="Arial" font-size="16">avatar e antecipação</text></g><g transform="translate(588)"><rect width="270" height="320" rx="18" fill="#0a1428" stroke="#ffe06b"/><text x="18" y="34" fill="#ffe06b" font-family="monospace" font-size="15">FIXA / SUPERIOR</text><path d="m50 120 85-45 85 45-85 45Z" fill="#29395d" stroke="#ffe06b" stroke-width="3"/><path d="m50 205 85-45 85 45-85 45Z" fill="#192842" stroke="#62e8ff" stroke-width="3"/><circle cx="135" cy="205" r="12" fill="#ff7edb"/><text x="22" y="296" fill="#dce8ff" font-family="Arial" font-size="16">composição e estratégia</text></g></g><text x="790" y="505" fill="#c3cee2" font-family="monospace" font-size="14">PREVIEW 2/2</text></svg>