<svg xmlns="http://www.w3.org/2000/svg" width="512" height="512" viewBox="0 0 512 512" >
<defs>
    <linearGradient id="bg" x1="0" y1="0" x2="1" y2="1"><stop stop-color="#07111f"/><stop offset=".55" stop-color="#0d1c32"/><stop offset="1" stop-color="#070914"/></linearGradient>
    <linearGradient id="accent" x1="0" y1="0" x2="1" y2="1"><stop stop-color="#ffd766"/><stop offset="1" stop-color="#ff8a00"/></linearGradient>
    <linearGradient id="metal" x1="0" y1="0" x2="1" y2="1"><stop stop-color="#eef8ff"/><stop offset=".24" stop-color="#7b91a8"/><stop offset=".52" stop-color="#24364a"/><stop offset=".78" stop-color="#9bb0c2"/><stop offset="1" stop-color="#263546"/></linearGradient>
    <radialGradient id="glow"><stop stop-color="#ffd766" stop-opacity=".65"/><stop offset="1" stop-color="#ffd766" stop-opacity="0"/></radialGradient>
    <filter id="shadow" x="-50%" y="-50%" width="200%" height="200%"><feDropShadow dx="0" dy="16" stdDeviation="14" flood-color="#000" flood-opacity=".62"/></filter>
    <filter id="neon" x="-80%" y="-80%" width="260%" height="260%"><feGaussianBlur stdDeviation="5" result="b"/><feMerge><feMergeNode in="b"/><feMergeNode in="SourceGraphic"/></feMerge></filter>
    <pattern id="grid" width="32" height="32" patternUnits="userSpaceOnUse"><path d="M32 0H0V32" fill="none" stroke="#63d8ff" stroke-opacity=".08" stroke-width="1"/></pattern>
    <linearGradient id="rarity" x1="0" y1="0" x2="1" y2="1"><stop stop-color="#ffd766"/><stop offset="1" stop-color="#ff8a00"/></linearGradient></defs>
    <rect width="512" height="512" rx="54" fill="url(#bg)"/>
    <rect width="512" height="512" rx="54" fill="url(#grid)"/>
    <circle cx="256" cy="242" r="190" fill="url(#glow)" opacity=".48"/>
    <path d="M42 108V46h62M408 46h58v62M42 404v62h62M408 466h58v-62" fill="none" stroke="url(#rarity)" stroke-width="6" stroke-linecap="round" opacity=".65"/>
    <ellipse cx="256" cy="441" rx="150" ry="25" fill="#000" opacity=".38"/>
    <ellipse cx="256" cy="421" rx="122" ry="28" fill="none" stroke="url(#rarity)" stroke-width="8" opacity=".7" filter="url(#neon)"/>
    <rect x="290" y="114" width="8" height="23" rx="3" fill="#ffd45e" opacity=".75" filter="url(#neon)"/><rect x="120" y="169" width="9" height="24" rx="3" fill="#ff8600" opacity=".75" filter="url(#neon)"/><rect x="119" y="274" width="13" height="19" rx="3" fill="#ffd45e" opacity=".75" filter="url(#neon)"/><rect x="197" y="58" width="6" height="28" rx="3" fill="#ff8600" opacity=".75" filter="url(#neon)"/><rect x="383" y="278" width="13" height="16" rx="3" fill="#ffd45e" opacity=".75" filter="url(#neon)"/><rect x="371" y="255" width="11" height="21" rx="3" fill="#ff8600" opacity=".75" filter="url(#neon)"/><rect x="339" y="85" width="10" height="19" rx="3" fill="#ffd45e" opacity=".75" filter="url(#neon)"/><rect x="142" y="383" width="5" height="23" rx="3" fill="#ff8600" opacity=".75" filter="url(#neon)"/><rect x="177" y="243" width="13" height="26" rx="3" fill="#ffd45e" opacity=".75" filter="url(#neon)"/><rect x="221" y="152" width="7" height="19" rx="3" fill="#ff8600" opacity=".75" filter="url(#neon)"/><rect x="207" y="278" width="6" height="21" rx="3" fill="#ffd45e" opacity=".75" filter="url(#neon)"/><rect x="372" y="183" width="9" height="27" rx="3" fill="#ff8600" opacity=".75" filter="url(#neon)"/><rect x="146" y="101" width="5" height="26" rx="3" fill="#ffd45e" opacity=".75" filter="url(#neon)"/><rect x="249" y="300" width="14" height="23" rx="3" fill="#ff8600" opacity=".75" filter="url(#neon)"/><rect x="306" y="361" width="8" height="23" rx="3" fill="#ffd45e" opacity=".75" filter="url(#neon)"/><rect x="134" y="149" width="13" height="24" rx="3" fill="#ff8600" opacity=".75" filter="url(#neon)"/><rect x="344" y="86" width="5" height="25" rx="3" fill="#ffd45e" opacity=".75" filter="url(#neon)"/><rect x="325" y="73" width="6" height="28" rx="3" fill="#ff8600" opacity=".75" filter="url(#neon)"/><rect x="350" y="210" width="7" height="16" rx="3" fill="#ffd45e" opacity=".75" filter="url(#neon)"/><rect x="268" y="290" width="6" height="12" rx="3" fill="#ff8600" opacity=".75" filter="url(#neon)"/><rect x="123" y="212" width="9" height="13" rx="3" fill="#ffd45e" opacity=".75" filter="url(#neon)"/><rect x="367" y="290" width="10" height="23" rx="3" fill="#ff8600" opacity=".75" filter="url(#neon)"/><rect x="124" y="287" width="5" height="21" rx="3" fill="#ffd45e" opacity=".75" filter="url(#neon)"/><rect x="233" y="327" width="10" height="14" rx="3" fill="#ff8600" opacity=".75" filter="url(#neon)"/><ellipse cx="256" cy="390" rx="120" ry="28" fill="none" stroke="#ffd45e" stroke-width="10" opacity="0.8" filter="url(#neon)"/><ellipse cx="256" cy="342" rx="108" ry="25" fill="none" stroke="#ff8600" stroke-width="9" opacity="0.7000000000000001" filter="url(#neon)"/><ellipse cx="256" cy="294" rx="96" ry="22" fill="none" stroke="#ffd45e" stroke-width="8" opacity="0.6000000000000001" filter="url(#neon)"/><ellipse cx="256" cy="246" rx="84" ry="19" fill="none" stroke="#ff8600" stroke-width="7" opacity="0.5" filter="url(#neon)"/><ellipse cx="256" cy="198" rx="72" ry="16" fill="none" stroke="#ffd45e" stroke-width="6" opacity="0.4" filter="url(#neon)"/><g filter="url(#shadow)"><rect x="211" y="309" width="42" height="104" rx="13" fill="#111923"/><rect x="259" y="309" width="42" height="104" rx="13" fill="#111923"/><rect x="204" y="398" width="55" height="31" rx="11" fill="#243b4e"/><rect x="253" y="398" width="55" height="31" rx="11" fill="#243b4e"/><rect x="196" y="196" width="120" height="116" rx="22" fill="#152536" stroke="#314a63" stroke-width="5"/><path d="M208 215h96" stroke="#ffd45e" stroke-width="8" opacity=".8"/><rect x="237" y="234" width="39" height="39" rx="10" fill="none" stroke="#ffd45e" stroke-width="6" filter="url(#neon)"/><rect x="151" y="205" width="42" height="108" rx="18" fill="#152536"/><rect x="319" y="205" width="42" height="108" rx="18" fill="#152536"/><rect x="211" y="113" width="90" height="84" rx="18" fill="#d99a6f" stroke="#5a2d22" stroke-width="4"/><path d="M208 135v-24q0-35 48-35t48 35v18l-18-16-18 12-16-15-22 18z" fill="#231b20"/><path d="M273 86h20v40h-13z" fill="#ffd45e" filter="url(#neon)"/><rect x="230" y="149" width="11" height="7" rx="3" fill="#13213a"/><rect x="271" y="149" width="11" height="7" rx="3" fill="#13213a"/><path d="M244 178q12 9 25 0" fill="none" stroke="#5a2d22" stroke-width="4" stroke-linecap="round"/></g></svg>