<svg xmlns="http://www.w3.org/2000/svg" width="512" height="512" viewBox="0 0 512 512" >
<defs>
    <linearGradient id="bg" x1="0" y1="0" x2="1" y2="1"><stop stop-color="#07111f"/><stop offset=".55" stop-color="#0d1c32"/><stop offset="1" stop-color="#070914"/></linearGradient>
    <linearGradient id="accent" x1="0" y1="0" x2="1" y2="1"><stop stop-color="#ff66d4"/><stop offset="1" stop-color="#b824ff"/></linearGradient>
    <linearGradient id="metal" x1="0" y1="0" x2="1" y2="1"><stop stop-color="#eef8ff"/><stop offset=".24" stop-color="#7b91a8"/><stop offset=".52" stop-color="#24364a"/><stop offset=".78" stop-color="#9bb0c2"/><stop offset="1" stop-color="#263546"/></linearGradient>
    <radialGradient id="glow"><stop stop-color="#ff66d4" stop-opacity=".65"/><stop offset="1" stop-color="#ff66d4" stop-opacity="0"/></radialGradient>
    <filter id="shadow" x="-50%" y="-50%" width="200%" height="200%"><feDropShadow dx="0" dy="16" stdDeviation="14" flood-color="#000" flood-opacity=".62"/></filter>
    <filter id="neon" x="-80%" y="-80%" width="260%" height="260%"><feGaussianBlur stdDeviation="5" result="b"/><feMerge><feMergeNode in="b"/><feMergeNode in="SourceGraphic"/></feMerge></filter>
    <pattern id="grid" width="32" height="32" patternUnits="userSpaceOnUse"><path d="M32 0H0V32" fill="none" stroke="#63d8ff" stroke-opacity=".08" stroke-width="1"/></pattern>
    <linearGradient id="rarity" x1="0" y1="0" x2="1" y2="1"><stop stop-color="#ff66d4"/><stop offset="1" stop-color="#b824ff"/></linearGradient></defs><rect x="278" y="219" width="10" height="20" rx="3" fill="#ff64d6" opacity=".75" filter="url(#neon)"/><rect x="233" y="119" width="13" height="18" rx="3" fill="#8b34ff" opacity=".75" filter="url(#neon)"/><rect x="212" y="226" width="6" height="25" rx="3" fill="#ff64d6" opacity=".75" filter="url(#neon)"/><rect x="127" y="154" width="8" height="15" rx="3" fill="#8b34ff" opacity=".75" filter="url(#neon)"/><rect x="194" y="279" width="14" height="19" rx="3" fill="#ff64d6" opacity=".75" filter="url(#neon)"/><rect x="388" y="379" width="14" height="25" rx="3" fill="#8b34ff" opacity=".75" filter="url(#neon)"/><rect x="297" y="88" width="6" height="16" rx="3" fill="#ff64d6" opacity=".75" filter="url(#neon)"/><rect x="275" y="208" width="6" height="22" rx="3" fill="#8b34ff" opacity=".75" filter="url(#neon)"/><rect x="198" y="50" width="11" height="23" rx="3" fill="#ff64d6" opacity=".75" filter="url(#neon)"/><rect x="312" y="379" width="13" height="12" rx="3" fill="#8b34ff" opacity=".75" filter="url(#neon)"/><rect x="189" y="374" width="11" height="12" rx="3" fill="#ff64d6" opacity=".75" filter="url(#neon)"/><rect x="205" y="388" width="7" height="25" rx="3" fill="#8b34ff" opacity=".75" filter="url(#neon)"/><rect x="202" y="293" width="8" height="26" rx="3" fill="#ff64d6" opacity=".75" filter="url(#neon)"/><rect x="146" y="89" width="11" height="20" rx="3" fill="#8b34ff" opacity=".75" filter="url(#neon)"/><rect x="195" y="275" width="11" height="27" rx="3" fill="#ff64d6" opacity=".75" filter="url(#neon)"/><rect x="241" y="252" width="10" height="21" rx="3" fill="#8b34ff" opacity=".75" filter="url(#neon)"/><rect x="260" y="94" width="14" height="15" rx="3" fill="#ff64d6" opacity=".75" filter="url(#neon)"/><rect x="166" y="52" width="11" height="17" rx="3" fill="#8b34ff" opacity=".75" filter="url(#neon)"/><rect x="197" y="308" width="14" height="27" rx="3" fill="#ff64d6" opacity=".75" filter="url(#neon)"/><rect x="278" y="184" width="10" height="22" rx="3" fill="#8b34ff" opacity=".75" filter="url(#neon)"/><rect x="238" y="66" width="8" height="28" rx="3" fill="#ff64d6" opacity=".75" filter="url(#neon)"/><rect x="158" y="86" width="13" height="12" rx="3" fill="#8b34ff" opacity=".75" filter="url(#neon)"/><rect x="179" y="347" width="9" height="26" rx="3" fill="#ff64d6" opacity=".75" filter="url(#neon)"/><rect x="190" y="127" width="7" height="19" rx="3" fill="#8b34ff" opacity=".75" filter="url(#neon)"/><ellipse cx="256" cy="390" rx="120" ry="28" fill="none" stroke="#ff64d6" stroke-width="10" opacity="0.8" filter="url(#neon)"/><ellipse cx="256" cy="342" rx="108" ry="25" fill="none" stroke="#8b34ff" stroke-width="9" opacity="0.7000000000000001" filter="url(#neon)"/><ellipse cx="256" cy="294" rx="96" ry="22" fill="none" stroke="#ff64d6" stroke-width="8" opacity="0.6000000000000001" filter="url(#neon)"/><ellipse cx="256" cy="246" rx="84" ry="19" fill="none" stroke="#8b34ff" stroke-width="7" opacity="0.5" filter="url(#neon)"/><ellipse cx="256" cy="198" rx="72" ry="16" fill="none" stroke="#ff64d6" stroke-width="6" opacity="0.4" filter="url(#neon)"/><g filter="url(#shadow)"><rect x="211" y="309" width="42" height="104" rx="13" fill="#111923"/><rect x="259" y="309" width="42" height="104" rx="13" fill="#111923"/><rect x="204" y="398" width="55" height="31" rx="11" fill="#243b4e"/><rect x="253" y="398" width="55" height="31" rx="11" fill="#243b4e"/><rect x="196" y="196" width="120" height="116" rx="22" fill="#152536" stroke="#314a63" stroke-width="5"/><path d="M208 215h96" stroke="#ff64d6" stroke-width="8" opacity=".8"/><rect x="237" y="234" width="39" height="39" rx="10" fill="none" stroke="#ff64d6" stroke-width="6" filter="url(#neon)"/><rect x="151" y="205" width="42" height="108" rx="18" fill="#152536"/><rect x="319" y="205" width="42" height="108" rx="18" fill="#152536"/><rect x="211" y="113" width="90" height="84" rx="18" fill="#d99a6f" stroke="#5a2d22" stroke-width="4"/><path d="M208 135v-24q0-35 48-35t48 35v18l-18-16-18 12-16-15-22 18z" fill="#231b20"/><path d="M273 86h20v40h-13z" fill="#ff64d6" filter="url(#neon)"/><rect x="230" y="149" width="11" height="7" rx="3" fill="#13213a"/><rect x="271" y="149" width="11" height="7" rx="3" fill="#13213a"/><path d="M244 178q12 9 25 0" fill="none" stroke="#5a2d22" stroke-width="4" stroke-linecap="round"/></g></svg>