<svg xmlns="http://www.w3.org/2000/svg" width="512" height="512" viewBox="0 0 512 512" >
<defs>
    <linearGradient id="bg" x1="0" y1="0" x2="1" y2="1"><stop stop-color="#07111f"/><stop offset=".55" stop-color="#0d1c32"/><stop offset="1" stop-color="#070914"/></linearGradient>
    <linearGradient id="accent" x1="0" y1="0" x2="1" y2="1"><stop stop-color="#ff66d4"/><stop offset="1" stop-color="#b824ff"/></linearGradient>
    <linearGradient id="metal" x1="0" y1="0" x2="1" y2="1"><stop stop-color="#eef8ff"/><stop offset=".24" stop-color="#7b91a8"/><stop offset=".52" stop-color="#24364a"/><stop offset=".78" stop-color="#9bb0c2"/><stop offset="1" stop-color="#263546"/></linearGradient>
    <radialGradient id="glow"><stop stop-color="#ff66d4" stop-opacity=".65"/><stop offset="1" stop-color="#ff66d4" stop-opacity="0"/></radialGradient>
    <filter id="shadow" x="-50%" y="-50%" width="200%" height="200%"><feDropShadow dx="0" dy="16" stdDeviation="14" flood-color="#000" flood-opacity=".62"/></filter>
    <filter id="neon" x="-80%" y="-80%" width="260%" height="260%"><feGaussianBlur stdDeviation="5" result="b"/><feMerge><feMergeNode in="b"/><feMergeNode in="SourceGraphic"/></feMerge></filter>
    <pattern id="grid" width="32" height="32" patternUnits="userSpaceOnUse"><path d="M32 0H0V32" fill="none" stroke="#63d8ff" stroke-opacity=".08" stroke-width="1"/></pattern>
    <linearGradient id="rarity" x1="0" y1="0" x2="1" y2="1"><stop stop-color="#ff66d4"/><stop offset="1" stop-color="#b824ff"/></linearGradient></defs><g filter="url(#neon)"><path d="M122 93l-19-38M122 93l37-26M122 93l-45 7M122 93l20 40" stroke="#ff68d5" stroke-width="8" stroke-linecap="round"/><path d="M390 110l-27-45M390 110l42-32M390 110l50 12M390 110l-16 49" stroke="#ffd45e" stroke-width="8" stroke-linecap="round"/><path d="M263 53l-8-42M263 53l38-20M263 53l-38-20" stroke="#2ad7ff" stroke-width="8" stroke-linecap="round"/></g><g filter="url(#shadow)"><rect x="211" y="309" width="42" height="104" rx="13" fill="#111923"/><rect x="259" y="309" width="42" height="104" rx="13" fill="#111923"/><rect x="204" y="398" width="55" height="31" rx="11" fill="#243b4e"/><rect x="253" y="398" width="55" height="31" rx="11" fill="#243b4e"/><rect x="196" y="196" width="120" height="116" rx="22" fill="#192b3e" stroke="#314a63" stroke-width="5"/><path d="M208 215h96" stroke="#ff66d4" stroke-width="8" opacity=".8"/><rect x="237" y="234" width="39" height="39" rx="10" fill="none" stroke="#ff66d4" stroke-width="6" filter="url(#neon)"/><rect x="148" y="151" width="42" height="122" rx="18" fill="#192b3e" transform="rotate(26 169 212)"/><rect x="322" y="151" width="42" height="122" rx="18" fill="#192b3e" transform="rotate(-26 343 212)"/><rect x="211" y="113" width="90" height="84" rx="18" fill="#d99a6f" stroke="#5a2d22" stroke-width="4"/><path d="M208 135v-24q0-35 48-35t48 35v18l-18-16-18 12-16-15-22 18z" fill="#231b20"/><path d="M273 86h20v40h-13z" fill="#ff66d4" filter="url(#neon)"/><rect x="230" y="149" width="11" height="7" rx="3" fill="#13213a"/><rect x="271" y="149" width="11" height="7" rx="3" fill="#13213a"/><path d="M244 178q12 9 25 0" fill="none" stroke="#5a2d22" stroke-width="4" stroke-linecap="round"/></g></svg>