<svg xmlns="http://www.w3.org/2000/svg" viewBox="0 0 960 540" role="img" aria-label="Prévia das seis fases e dos modos Histórico e Moderno de Plataforma Clássica DS">
<rect width="960" height="540" fill="#07121d"/><text x="48" y="64" font-family="system-ui" font-size="29" font-weight="950" fill="#fff">6 FASES · HISTÓRICO + MODERNO</text><text x="48" y="100" font-family="system-ui" font-size="16" fill="#9fc2d8">A mesma física em duas linguagens visuais. Um fragmento secreto por fase.</text><g font-family="system-ui" font-weight="850"><rect x="48" y="140" width="408" height="110" rx="18" fill="#111b29" stroke="#8ca0b3"/><text x="76" y="177" font-size="18" fill="#d5e1ea">HISTÓRICO</text><text x="76" y="211" font-size="22" fill="#fff">pixelização · scanlines · formas rígidas</text><rect x="504" y="140" width="408" height="110" rx="18" fill="#102838" stroke="#5dd7ff"/><text x="532" y="177" font-size="18" fill="#8fe5ff">MODERNO</text><text x="532" y="211" font-size="22" fill="#fff">parallax · sombras · partículas · glow</text></g><g font-family="system-ui" font-size="14" font-weight="850"><g fill="#153247" stroke="#2c617a"><rect x="48" y="300" width="272" height="72" rx="14"/><rect x="344" y="300" width="272" height="72" rx="14"/><rect x="640" y="300" width="272" height="72" rx="14"/><rect x="48" y="394" width="272" height="72" rx="14"/><rect x="344" y="394" width="272" height="72" rx="14"/><rect x="640" y="394" width="272" height="72" rx="14"/></g><g fill="#e3f1f8"><text x="68" y="330">1-1 · SINAL DE PARTIDA</text><text x="364" y="330">1-2 · BOSQUE DE BITS</text><text x="660" y="330">1-3 · CAVERNAS DE CACHE</text><text x="68" y="424">1-4 · FÁBRICA DE CLOCK</text><text x="364" y="424">1-5 · TORRES DE RENDER</text><text x="660" y="424">1-6 · CASTELO DO KERNEL</text></g><g fill="#91afc2" font-weight="600"><text x="68" y="352">tutorial + checkpoint</text><text x="364" y="352">Saltadores Glitch</text><text x="660" y="352">Sentinelas + molas</text><text x="68" y="446">ritmo e precisão</text><text x="364" y="446">rota vertical + segredo</text><text x="660" y="446">Guardião do Clock · 3 saltos</text></g></g>
</svg>
